HIERARCHY
ROOT joint_Root
{
	OFFSET 0.0 0.0 0.0
	CHANNELS 6 Xposition Yposition Zposition Zrotation Xrotation Yrotation 
	JOINT Hips
	{
		OFFSET 4.5925 91.4895 -427.239
		CHANNELS 6 Xposition Yposition Zposition Zrotation Xrotation Yrotation 
		JOINT Spine
		{
			OFFSET 15.7357 0.0 0.0
			CHANNELS 6 Xposition Yposition Zposition Zrotation Xrotation Yrotation 
			JOINT Chest
			{
				OFFSET 8.98455 -0.406207 0.0
				CHANNELS 6 Xposition Yposition Zposition Zrotation Xrotation Yrotation 
				JOINT Neck
				{
					OFFSET 16.3773 0.0 0.0
					CHANNELS 6 Xposition Yposition Zposition Zrotation Xrotation Yrotation 
					JOINT Head
					{
						OFFSET 6.45672 0.0 0.0
						CHANNELS 6 Xposition Yposition Zposition Zrotation Xrotation Yrotation 
						End Site
						{
							OFFSET 0.0 0.0 0.0
						}
					}
				}
				JOINT Shoulder_L
				{
					OFFSET 12.9942 -0.242716 4.98039
					CHANNELS 6 Xposition Yposition Zposition Zrotation Xrotation Yrotation 
					JOINT UpperArm_L
					{
						OFFSET 5.34809 0.0 0.0
						CHANNELS 6 Xposition Yposition Zposition Zrotation Xrotation Yrotation 
						JOINT LowerArm_L
						{
							OFFSET 24.3286 1.87007e-05 0.0
							CHANNELS 6 Xposition Yposition Zposition Zrotation Xrotation Yrotation 
							JOINT Hand_L
							{
								OFFSET 22.2916 0.0 0.0
								CHANNELS 6 Xposition Yposition Zposition Zrotation Xrotation Yrotation 
								End Site
								{
									OFFSET 0.0 0.0 0.0
								}
							}
						}
					}
				}
				JOINT Shoulder_R
				{
					OFFSET 12.9945 -0.242716 -4.98039
					CHANNELS 6 Xposition Yposition Zposition Zrotation Xrotation Yrotation 
					JOINT UpperArm_R
					{
						OFFSET -5.34813 0.0 0.0
						CHANNELS 6 Xposition Yposition Zposition Zrotation Xrotation Yrotation 
						JOINT LowerArm_R
						{
							OFFSET -24.3289 0.000322201 0.0
							CHANNELS 6 Xposition Yposition Zposition Zrotation Xrotation Yrotation 
							JOINT Hand_R
							{
								OFFSET -22.2915 -0.000108084 0.0
								CHANNELS 6 Xposition Yposition Zposition Zrotation Xrotation Yrotation 
								End Site
								{
									OFFSET 0.0 0.0 0.0
								}
							}
						}
					}
				}
			}
		}
		JOINT UpperLeg_L
		{
			OFFSET -2.19248 -6.46944 0.0
			CHANNELS 6 Xposition Yposition Zposition Zrotation Xrotation Yrotation 
			JOINT LowerLeg_L
			{
				OFFSET 39.0811 0.0 -1.23785e-05
				CHANNELS 6 Xposition Yposition Zposition Zrotation Xrotation Yrotation 
				JOINT Foot_L
				{
					OFFSET 40.9854 0.0 -1.26872e-05
					CHANNELS 6 Xposition Yposition Zposition Zrotation Xrotation Yrotation 
					JOINT Toes_L
					{
						OFFSET 11.7543 0.0 0.0
						CHANNELS 6 Xposition Yposition Zposition Zrotation Xrotation Yrotation 
						End Site
						{
							OFFSET 0.0 0.0 0.0
						}
					}
				}
			}
		}
		JOINT UpperLeg_R
		{
			OFFSET -2.19251 6.46944 0.0
			CHANNELS 6 Xposition Yposition Zposition Zrotation Xrotation Yrotation 
			JOINT LowerLeg_R
			{
				OFFSET -39.0811 -0.00228153 -0.0401928
				CHANNELS 6 Xposition Yposition Zposition Zrotation Xrotation Yrotation 
				JOINT Foot_R
				{
					OFFSET -40.9854 0.0 0.0
					CHANNELS 6 Xposition Yposition Zposition Zrotation Xrotation Yrotation 
					JOINT Toes_R
					{
						OFFSET -11.7543 0.0 0.0
						CHANNELS 6 Xposition Yposition Zposition Zrotation Xrotation Yrotation 
						End Site
						{
							OFFSET 0.0 0.0 0.0
						}
					}
				}
			}
		}
	}
}
MOTION
Frames:	6
Frame Time:	0.0333333
0.000000 0.000000 0.000000 0.000000 0.000000 -0.000000 5.372740 90.371900 0.893461 90.144400 -3.376750 13.418000 15.735700 0.000005 -0.000001 100.140000 82.253700 -103.874000 8.984550 -0.406207 -0.000000 7.591080 2.722300 -7.642070 16.377300 -0.000001 -0.000001 26.015000 2.242490 -1.669600 6.456720 -0.000001 -0.000000 14.230100 1.703590 -17.980900 12.994200 -0.242716 4.980390 -91.898200 5.407350 -70.624100 5.348090 -0.000007 -0.000001 -59.858900 29.577400 -10.320500 24.328600 0.000019 0.000005 8.065930 24.577900 -18.814700 22.291600 -0.000001 0.000005 10.754900 5.227430 2.021960 12.994500 -0.242716 -4.980390 90.739200 -2.820500 -75.307200 -5.348130 -0.000001 -0.000004 -48.384700 -57.029900 -56.173500 -24.328900 0.000322 -0.000009 0.293958 0.490759 -31.011100 -22.291500 -0.000108 -0.000004 28.575700 5.227000 2.033810 -2.192480 -6.469440 -0.000000 -179.662000 -10.539800 3.346250 39.081100 -0.000007 -0.000012 0.008427 -0.013650 31.687600 40.985400 -0.000006 -0.000013 4.079920 2.680700 -72.219800 11.754300 -0.000000 0.000003 -0.000099 -0.001022 -16.616800 -2.192510 6.469440 -0.000001 169.457000 13.628200 -175.836000 -39.081100 -0.002282 -0.040193 -0.013716 0.028200 31.106000 -40.985400 0.000008 0.000006 1.427460 12.198200 -71.264800 -11.754300 -0.000006 -0.000006 -0.007235 -0.081671 -19.898100
0.000000 0.000000 0.000000 0.000000 0.000000 -0.000000 5.412410 90.358900 0.857952 90.170700 -3.997080 13.601900 15.735700 0.000005 -0.000001 99.393700 82.232200 -103.052000 8.984550 -0.406207 -0.000000 7.658480 2.528810 -7.478550 16.377300 -0.000001 -0.000001 26.108100 2.112120 -1.612630 6.456720 -0.000001 -0.000000 14.134100 1.531730 -17.844100 12.994200 -0.242716 4.980390 -91.887400 5.372460 -70.610200 5.348090 -0.000007 -0.000001 -60.338800 30.021300 -10.069000 24.328600 0.000019 0.000005 8.102780 24.508100 -18.942600 22.291600 -0.000001 0.000005 10.716600 5.229640 1.964880 12.994500 -0.242716 -4.980390 90.724000 -2.758240 -75.285100 -5.348130 -0.000001 -0.000004 -50.719300 -56.986400 -58.444300 -24.328900 0.000322 -0.000009 -0.167882 -0.282555 -30.556200 -22.291500 -0.000108 -0.000004 28.113900 5.196670 2.802690 -2.192480 -6.469440 -0.000000 -179.636000 -10.869900 3.542880 39.081100 -0.000007 -0.000012 0.010993 -0.017800 31.697200 40.985400 -0.000006 -0.000013 4.027180 2.390730 -72.239900 11.754300 -0.000000 0.000003 -0.000105 -0.001071 -16.618600 -2.192510 6.469440 -0.000001 169.489000 13.163900 -175.883000 -39.081100 -0.002282 -0.040193 -0.014154 0.028802 31.214900 -40.985400 0.000008 0.000006 1.450310 12.358300 -71.244700 -11.754300 -0.000006 -0.000006 -0.007258 -0.081866 -19.906000
0.000000 0.000000 0.000000 0.000000 0.000000 -0.000000 5.470640 90.343100 0.803810 90.196300 -4.688520 13.739600 15.735700 0.000005 -0.000001 98.665600 82.236100 -102.241000 8.984550 -0.406207 -0.000000 7.672350 2.332890 -7.301770 16.377300 -0.000001 -0.000001 26.149400 1.940160 -1.371590 6.456720 -0.000001 -0.000000 14.189100 1.273970 -17.634900 12.994200 -0.242716 4.980390 -91.852200 5.288710 -70.667200 5.348090 -0.000007 -0.000001 -60.849500 30.440900 -9.846460 24.328600 0.000019 0.000005 8.215570 24.589900 -19.134900 22.291600 -0.000001 0.000005 10.573600 5.228370 1.997790 12.994500 -0.242716 -4.980390 90.719400 -2.727830 -75.218700 -5.348130 -0.000001 -0.000004 -52.818000 -56.617400 -61.018500 -24.328900 0.000322 -0.000009 -0.522796 -0.879544 -30.674600 -22.291500 -0.000108 -0.000004 27.931600 5.176240 3.307990 -2.192480 -6.469440 -0.000000 -179.612000 -11.228100 3.661920 39.081100 -0.000007 -0.000012 0.011245 -0.018181 31.735700 40.985400 -0.000006 -0.000013 3.970520 2.082630 -72.259000 11.754300 -0.000000 0.000003 -0.000099 -0.001016 -16.616500 -2.192510 6.469440 -0.000001 169.548000 12.628800 -176.010000 -39.081100 -0.002282 -0.040193 -0.015155 0.030326 31.321500 -40.985400 0.000008 0.000006 1.416570 12.550300 -71.210100 -11.754300 -0.000006 -0.000006 -0.007224 -0.081575 -19.894200
0.000000 0.000000 0.000000 0.000000 0.000000 -0.000000 5.520870 90.335800 0.747471 90.205700 -5.401700 13.909400 15.735700 0.000005 -0.000001 97.801500 82.245000 -101.287000 8.984550 -0.406207 -0.000000 7.677880 2.099390 -7.105550 16.377300 -0.000001 -0.000001 26.323800 1.722620 -0.981520 6.456720 -0.000001 -0.000000 14.163600 0.894806 -17.399100 12.994200 -0.242716 4.980390 -91.830200 5.242320 -70.724200 5.348090 -0.000007 -0.000001 -61.216300 31.038000 -9.707840 24.328600 0.000019 0.000005 8.214490 24.341400 -19.302300 22.291600 -0.000001 0.000005 10.553700 5.231000 1.929730 12.994500 -0.242716 -4.980390 90.718100 -2.710190 -75.152600 -5.348130 -0.000001 -0.000004 -53.807100 -55.832200 -63.047100 -24.328900 0.000322 -0.000009 -0.905356 -1.477560 -31.470500 -22.291500 -0.000108 -0.000004 28.208900 5.178680 3.248010 -2.192480 -6.469440 -0.000000 -179.562000 -11.585000 3.840570 39.081100 -0.000007 -0.000012 0.010685 -0.017276 31.732900 40.985400 -0.000006 -0.000013 3.902280 1.748420 -72.262400 11.754300 -0.000000 0.000003 -0.000108 -0.001099 -16.619700 -2.192510 6.469440 -0.000001 169.639000 12.069300 -176.099000 -39.081100 -0.002282 -0.040193 -0.016066 0.031727 31.398100 -40.985400 0.000008 0.000006 1.418950 12.713000 -71.148800 -11.754300 -0.000006 -0.000006 -0.007079 -0.080344 -19.843900
0.000000 0.000000 0.000000 0.000000 0.000000 -0.000000 5.574900 90.326000 0.675641 90.200900 -6.152190 14.016600 15.735700 0.000005 -0.000001 97.052100 82.255000 -100.437000 8.984550 -0.406207 -0.000000 7.675230 1.896620 -6.890480 16.377300 -0.000001 -0.000001 26.380000 1.481920 -0.557842 6.456720 -0.000001 -0.000000 14.290000 0.502754 -17.085500 12.994200 -0.242716 4.980390 -91.797900 5.196460 -70.885300 5.348090 -0.000007 -0.000001 -61.518400 31.525200 -9.749780 24.328600 0.000019 0.000005 8.212380 24.206700 -19.391000 22.291600 -0.000001 0.000005 10.480300 5.235000 1.825840 12.994500 -0.242716 -4.980390 90.723900 -2.713690 -75.056500 -5.348130 -0.000001 -0.000004 -53.863600 -54.862900 -64.646400 -24.328900 0.000322 -0.000009 -1.070720 -1.657680 -32.838700 -22.291500 -0.000108 -0.000004 28.481100 5.196880 2.797410 -2.192480 -6.469440 -0.000000 -179.458000 -12.133900 3.940560 39.081100 -0.000007 -0.000012 0.012856 -0.020767 31.758000 40.985400 -0.000006 -0.000013 3.871250 1.514210 -72.278500 11.754300 -0.000000 0.000003 -0.000098 -0.001008 -16.616300 -2.192510 6.469440 -0.000001 169.782000 11.456300 -176.261000 -39.081100 -0.002282 -0.040193 -0.016780 0.032827 31.452500 -40.985400 0.000008 0.000006 1.372580 12.837200 -71.089300 -11.754300 -0.000006 -0.000006 -0.007133 -0.080804 -19.862700
0.000000 0.000000 0.000000 0.000000 0.000000 -0.000000 5.618390 90.323200 0.606922 90.207700 -6.909180 14.159200 15.735700 0.000005 -0.000001 96.178900 82.242300 -99.470800 8.984550 -0.406207 -0.000000 7.718170 1.664400 -6.689770 16.377300 -0.000001 -0.000001 26.473100 1.094670 -0.252898 6.456720 -0.000001 -0.000000 14.382600 0.147486 -16.657500 12.994200 -0.242716 4.980390 -91.769800 5.167060 -71.063200 5.348090 -0.000007 -0.000001 -61.744100 31.819600 -9.852230 24.328600 0.000019 0.000005 8.270030 24.042500 -19.634400 22.291600 -0.000001 0.000005 10.642200 5.240860 1.673060 12.994500 -0.242716 -4.980390 90.735800 -2.748060 -75.003900 -5.348130 -0.000001 -0.000004 -53.562700 -53.830000 -66.189600 -24.328900 0.000322 -0.000009 -1.124980 -1.620090 -34.753800 -22.291500 -0.000108 -0.000004 28.860400 5.218780 2.244720 -2.192480 -6.469440 -0.000000 -179.374000 -12.557200 4.088550 39.081100 -0.000007 -0.000012 0.012352 -0.019962 31.747200 40.985400 -0.000006 -0.000013 3.803930 1.226100 -72.268800 11.754300 -0.000000 0.000003 -0.000101 -0.001039 -16.617400 -2.192510 6.469440 -0.000001 169.909000 10.824400 -176.360000 -39.081100 -0.002282 -0.040193 -0.018784 0.036076 31.471900 -40.985400 0.000008 0.000006 1.386030 12.964500 -71.043500 -11.754300 -0.000006 -0.000006 -0.007106 -0.080574 -19.853300
